<svg width="25" height="25" viewBox="0 0 25 25" fill="none" xmlns="http://www.w3.org/2000/svg">
<path d="M18.5001 12.5C18.4952 11.9739 18.2832 11.4709 17.9101 11.1L13.6201 6.8C13.4327 6.61375 13.1792 6.50921 12.9151 6.50921C12.6509 6.50921 12.3974 6.61375 12.2101 6.8C12.1163 6.89296 12.0419 7.00357 11.9912 7.12542C11.9404 7.24728 11.9143 7.37799 11.9143 7.51C11.9143 7.64201 11.9404 7.77272 11.9912 7.89458C12.0419 8.01644 12.1163 8.12704 12.2101 8.22L15.5001 11.5H5.50006C5.23484 11.5 4.98049 11.6054 4.79295 11.7929C4.60542 11.9804 4.50006 12.2348 4.50006 12.5C4.50006 12.7652 4.60542 13.0196 4.79295 13.2071C4.98049 13.3946 5.23484 13.5 5.50006 13.5H15.5001L12.2101 16.79C12.0218 16.977 11.9154 17.2311 11.9145 17.4965C11.9136 17.7618 12.0181 18.0167 12.2051 18.205C12.392 18.3933 12.6462 18.4996 12.9115 18.5005C13.1769 18.5015 13.4318 18.397 13.6201 18.21L17.9101 13.91C18.2856 13.5366 18.4978 13.0296 18.5001 12.5Z" fill="#00A3FF"/>
</svg>
