<svg width="24" height="24" viewBox="0 0 24 24" fill="none" xmlns="http://www.w3.org/2000/svg">
<path d="M1.51319 15.487L5.67919 19.653C6.24178 20.2154 7.0047 20.5314 7.8002 20.5314C8.59569 20.5314 9.35861 20.2154 9.92119 19.653L22.7872 6.787C22.9694 6.59839 23.0701 6.34579 23.0679 6.0836C23.0656 5.8214 22.9604 5.57059 22.775 5.38518C22.5896 5.19977 22.3388 5.0946 22.0766 5.09232C21.8144 5.09004 21.5618 5.19084 21.3732 5.373L8.50719 18.239C8.31967 18.4265 8.06536 18.5318 7.8002 18.5318C7.53503 18.5318 7.28072 18.4265 7.09319 18.239L2.92719 14.073C2.73859 13.8908 2.48599 13.79 2.22379 13.7923C1.9616 13.7946 1.71078 13.8998 1.52538 14.0852C1.33997 14.2706 1.2348 14.5214 1.23252 14.7836C1.23024 15.0458 1.33104 15.2984 1.51319 15.487Z"/>
</svg>
