<svg width="18" height="18" viewBox="0 0 18 18" fill="none" xmlns="http://www.w3.org/2000/svg">
<g clip-path="url(#clip0_311_2907)">
<path d="M-0.000117298 5.24995C-0.000687967 5.15125 0.0182304 5.0534 0.0555539 4.96202C0.0928773 4.87065 0.147872 4.78753 0.217383 4.71745C0.287105 4.64716 0.370055 4.59136 0.46145 4.55329C0.552844 4.51521 0.650873 4.49561 0.749882 4.49561C0.848891 4.49561 0.94692 4.51521 1.03831 4.55329C1.12971 4.59136 1.21266 4.64716 1.28238 4.71745L7.40987 10.845C7.83175 11.2663 8.40362 11.503 8.99987 11.503C9.59612 11.503 10.168 11.2663 10.5899 10.845L16.7174 4.71745C16.8586 4.57623 17.0501 4.49689 17.2499 4.49689C17.4496 4.49689 17.6411 4.57623 17.7824 4.71745C17.9236 4.85868 18.0029 5.05023 18.0029 5.24995C18.0029 5.44968 17.9236 5.64123 17.7824 5.78245L11.6549 11.91C11.3065 12.2592 10.8927 12.5362 10.4371 12.7253C9.98153 12.9143 9.49313 13.0117 8.99987 13.0117C8.50662 13.0117 8.01821 12.9143 7.56262 12.7253C7.10703 12.5362 6.69322 12.2592 6.34488 11.91L0.217383 5.78245C0.147872 5.71237 0.0928773 5.62926 0.0555539 5.53788C0.0182304 5.44651 -0.000687967 5.34866 -0.000117298 5.24995Z" fill="#FBFBFB"/>
</g>
<defs>
<clipPath id="clip0_311_2907">
<rect width="18" height="18" fill="white" transform="matrix(0 1 -1 0 18 0)"/>
</clipPath>
</defs>
</svg>
