<svg width="24" height="24" viewBox="0 0 24 24" fill="none" xmlns="http://www.w3.org/2000/svg">
<g clip-path="url(#clip0_302_2882)">
<path d="M6.99994 23.9999C6.86833 24.0007 6.73787 23.9754 6.61603 23.9257C6.4942 23.8759 6.38338 23.8026 6.28994 23.7099C6.19621 23.6169 6.12182 23.5063 6.07105 23.3845C6.02028 23.2626 5.99414 23.1319 5.99414 22.9999C5.99414 22.8679 6.02028 22.7372 6.07105 22.6153C6.12182 22.4935 6.19621 22.3829 6.28994 22.2899L14.4599 14.1199C15.0217 13.5574 15.3373 12.7949 15.3373 11.9999C15.3373 11.2049 15.0217 10.4424 14.4599 9.87993L6.28994 1.70994C6.10164 1.52164 5.99585 1.26624 5.99585 0.99994C5.99585 0.733639 6.10164 0.478244 6.28994 0.289941C6.47824 0.101637 6.73364 -0.00415039 6.99994 -0.00415039C7.26624 -0.00415039 7.52164 0.101637 7.70994 0.289941L15.8799 8.45993C16.3456 8.92439 16.715 9.47614 16.9671 10.0836C17.2191 10.691 17.3489 11.3423 17.3489 11.9999C17.3489 12.6576 17.2191 13.3088 16.9671 13.9163C16.715 14.5237 16.3456 15.0755 15.8799 15.5399L7.70994 23.7099C7.6165 23.8026 7.50568 23.8759 7.38385 23.9257C7.26201 23.9754 7.13155 24.0007 6.99994 23.9999Z"/>
</g>
<defs>
<clipPath id="clip0_302_2882">
<rect width="24" height="24" fill="white"/>
</clipPath>
</defs>
</svg>
