<svg width="19" height="20" viewBox="0 0 19 20" fill="none" xmlns="http://www.w3.org/2000/svg">
<path d="M16.3733 3.12642C16.1585 2.91166 15.8672 2.79102 15.5634 2.79102C15.2596 2.79102 14.9683 2.91166 14.7535 3.12642L9.49987 8.38003L4.24627 3.12642C4.03144 2.91166 3.74011 2.79102 3.43634 2.79102C3.13258 2.79102 2.84125 2.91166 2.62642 3.12642C2.41166 3.34125 2.29102 3.63258 2.29102 3.93634C2.29102 4.24011 2.41166 4.53144 2.62642 4.74627L7.88003 9.99987L2.62642 15.2535C2.41166 15.4683 2.29102 15.7596 2.29102 16.0634C2.29102 16.3672 2.41166 16.6585 2.62642 16.8733C2.84125 17.0881 3.13258 17.2087 3.43634 17.2087C3.74011 17.2087 4.03144 17.0881 4.24627 16.8733L9.49987 11.6197L14.7535 16.8733C14.9683 17.0881 15.2596 17.2087 15.5634 17.2087C15.8672 17.2087 16.1585 17.0881 16.3733 16.8733C16.5881 16.6585 16.7087 16.3672 16.7087 16.0634C16.7087 15.7596 16.5881 15.4683 16.3733 15.2535L11.1197 9.99987L16.3733 4.74627C16.5881 4.53144 16.7087 4.24011 16.7087 3.93634C16.7087 3.63258 16.5881 3.34125 16.3733 3.12642V3.12642Z" fill="#FBFBFB"/>
</svg>
