<svg width="24" height="24" viewBox="0 0 24 24" fill="none" xmlns="http://www.w3.org/2000/svg">
<path d="M21 3.99998H17.9C17.4216 1.67358 15.3751 0.003 13 0H11C8.62487 0.003 6.57841 1.67358 6.1 3.99998H3.00001C2.44773 3.99998 2.00003 4.44769 2.00003 4.99997C2.00003 5.55225 2.44773 6 3.00001 6H4V19C4.00333 21.76 6.23997 23.9967 9.00002 24H15C17.7601 23.9967 19.9967 21.76 20 19V6H21C21.5523 6 22 5.5523 22 5.00002C22 4.44773 21.5523 3.99998 21 3.99998ZM11 17C11 17.5523 10.5523 18 10 18C9.44772 18 9.00002 17.5523 9.00002 17V11C9.00002 10.4477 9.44772 10 10 10C10.5523 10 11 10.4477 11 11V17H11ZM15 17C15 17.5523 14.5523 18 14 18C13.4477 18 13 17.5523 13 17V11C13 10.4477 13.4477 10 14 10C14.5523 10 15 10.4477 15 11V17ZM8.17103 3.99998C8.59637 2.80228 9.72906 2.00152 11 1.99997H13C14.271 2.00152 15.4037 2.80228 15.829 3.99998H8.17103Z"/>
</svg>
