<svg width="24" height="24" viewBox="0 0 24 24" fill="none" xmlns="http://www.w3.org/2000/svg">
<g clip-path="url(#clip0_4_2504)">
<path d="M1.172 19.1186C0.421803 19.8686 0.00022655 20.8859 0 21.9466L0 23.9996H2.053C3.11378 23.9994 4.13103 23.5778 4.881 22.8276L18.224 9.48466L14.515 5.77567L1.172 19.1186Z"/>
<path d="M23.1448 0.85516C22.9013 0.611395 22.6122 0.418016 22.2939 0.286077C21.9756 0.154138 21.6344 0.0862274 21.2898 0.0862274C20.9453 0.0862274 20.6041 0.154138 20.2858 0.286077C19.9675 0.418016 19.6783 0.611395 19.4348 0.85516L15.9288 4.36216L19.6378 8.07116L23.1448 4.56516C23.3886 4.32165 23.582 4.03248 23.7139 3.71419C23.8459 3.39589 23.9138 3.05472 23.9138 2.71016C23.9138 2.3656 23.8459 2.02443 23.7139 1.70613C23.582 1.38784 23.3886 1.09867 23.1448 0.85516Z"/>
</g>
<defs>
<clipPath id="clip0_4_2504">
<rect width="24" height="24" fill="white"/>
</clipPath>
</defs>
</svg>
