<svg width="1024" height="1024" viewBox="0 0 1024 1024" fill="none" xmlns="http://www.w3.org/2000/svg">
<circle cx="376" cy="517" r="308" fill="#00BCF8"/>
<circle cx="634" cy="517" r="308" fill="#0047FF"/>
<path d="M196.5 523.4C196.5 515.8 197.9 508.2 200.7 500.6C203.5 492.8 207.2 485.7 211.8 479.3C216.4 472.9 223.7 467.7 233.7 463.7C243.7 459.5 252.6 457.4 260.4 457.4C268.4 457.4 276.5 458.5 284.7 460.7C293.1 462.9 298.9 466.3 302.1 470.9C309.5 481.3 313.2 491.5 313.2 501.5C313.2 506.9 312 511.5 309.6 515.3C307.4 519.1 304.2 523.2 300 527.6C296.6 531.2 291.2 533.6 283.8 534.8C276.6 536 269.4 536.6 262.2 536.6C257.6 536.6 252 536.2 245.4 535.4C238.8 534.4 232.4 533.2 226.2 531.8C226.6 535.8 227.6 539.7 229.2 543.5C230.8 547.3 232.7 550.2 234.9 552.2C238.9 556 243 558.4 247.2 559.4C251.6 560.4 257.2 560.9 264 560.9C271.2 560.9 277.9 559.7 284.1 557.3C289.1 555.5 293.2 554.6 296.4 554.6C300.2 554.6 303.1 555.8 305.1 558.2C307.1 560.4 308.1 563.3 308.1 566.9C308.1 571.9 305.2 576 299.4 579.2C293.6 582.4 286.9 584.8 279.3 586.4C271.9 587.8 265.9 588.5 261.3 588.5C251.9 588.5 242.8 586.8 234 583.4C225.2 580 217.9 575.2 212.1 569C207.3 563.4 203.5 556.7 200.7 548.9C197.9 540.9 196.5 532.4 196.5 523.4ZM261.9 482.9C257.5 482.9 253.1 483.8 248.7 485.6C244.3 487.2 240.7 489.5 237.9 492.5C234.3 496.3 231.8 499.4 230.4 501.8C229.2 504 228.4 507.1 228 511.1C233 512.7 243.4 513.5 259.2 513.5C267.8 513.5 274.4 512.2 279 509.6C283.8 507 286.2 503.6 286.2 499.4C286.2 495.2 283.6 491.4 278.4 488C273.2 484.6 267.7 482.9 261.9 482.9Z" fill="white"/>
<path d="M357.9 483.2C355.1 482.8 352.8 481.6 351 479.6C349.4 477.6 348.6 475.2 348.6 472.4C348.6 471 348.9 469.5 349.5 467.9C350.3 466.3 351.4 464.9 352.8 463.7C355.4 461.1 362.4 459.8 373.8 459.8C375.4 452 376.2 444.1 376.2 436.1C376.2 433.1 376.1 430.5 375.9 428.3C375.7 426.1 375.6 424.4 375.6 423.2C375.6 418.8 377.2 415.5 380.4 413.3C383.8 411.1 387.6 410 391.8 410C397 410 400.5 411.3 402.3 413.9C404.3 416.5 405.3 421.3 405.3 428.3C405.3 438.7 404.4 448.9 402.6 458.9C405.8 458.9 410.2 458.7 415.8 458.3C423.4 457.9 428.9 457.7 432.3 457.7C435.7 457.7 438.6 458.6 441 460.4C443.6 462 444.9 464.3 444.9 467.3C444.9 475.1 441.4 479.7 434.4 481.1C427 482.9 415.5 484 399.9 484.4C399.3 492.2 399 500.7 399 509.9C399 524.3 399.9 536.1 401.7 545.3C402.9 551.7 404.9 556.4 407.7 559.4C410.7 562.2 415.1 563.6 420.9 563.6C424.3 563.6 427.8 562.7 431.4 560.9C433.8 559.5 436 558.8 438 558.8C440.8 558.8 442.8 559.7 444 561.5C445.4 563.3 446.1 565.7 446.1 568.7C446.1 574.3 443.1 579 437.1 582.8C431.1 586.4 423.4 588.2 414 588.2C408.2 588.2 402.3 586.8 396.3 584C390.5 581.2 385.6 577.7 381.6 573.5C381 572.9 379.9 570.6 378.3 566.6C376.7 562.6 375.3 558.3 374.1 553.7C372.1 544.3 371.1 531.1 371.1 514.1C371.1 506.7 371.5 496.8 372.3 484.4L357.9 483.2ZM599.759 485.9C598.159 485.9 596.659 485.3 595.259 484.1C594.059 482.7 593.459 481.1 593.459 479.3C593.459 474.7 595.459 470.4 599.459 466.4C600.659 465.8 603.059 464.8 606.659 463.4C610.259 462 613.459 461.3 616.259 461.3C623.859 461.3 630.059 463.4 634.859 467.6C639.659 471.6 642.059 477.4 642.059 485C642.059 487.2 641.659 491.9 640.859 499.1C640.059 507.5 639.659 514 639.659 518.6C639.659 532.6 641.559 543.9 645.359 552.5C646.759 555.3 648.959 557.5 651.959 559.1C654.959 560.7 657.659 561.5 660.059 561.5C665.859 561.5 670.559 560.5 674.159 558.5C677.759 556.5 681.659 553.3 685.859 548.9C690.059 544.5 692.759 539.5 693.959 533.9C695.359 528.3 696.359 520.6 696.959 510.8C697.359 504.4 697.759 499.7 698.159 496.7C699.159 487.1 699.659 478.9 699.659 472.1C699.659 467.7 700.859 464.1 703.259 461.3C705.659 458.3 708.959 456.8 713.159 456.8C715.559 456.8 718.259 457.6 721.259 459.2C724.459 460.6 726.559 462.3 727.559 464.3C728.759 466.3 729.359 469.6 729.359 474.2C729.359 476.6 729.059 478.9 728.459 481.1C727.059 486.1 726.359 492.1 726.359 499.1L726.659 514.7C726.659 528.9 727.659 539.4 729.659 546.2C730.659 549.4 732.059 552.7 733.859 556.1C735.659 559.3 737.359 562 738.959 564.2C742.959 568.6 745.559 571.7 746.759 573.5C747.959 575.1 748.559 576.7 748.559 578.3C748.559 580.7 747.359 583 744.959 585.2C742.759 587.2 740.359 588.2 737.759 588.2C730.359 588.2 723.959 585.7 718.559 580.7C713.159 575.7 709.159 569.2 706.559 561.2C699.759 569 693.459 575.3 687.659 580.1C683.659 582.9 678.759 585 672.959 586.4C667.159 587.6 661.359 588.2 655.559 588.2C647.759 588.2 639.859 585 631.859 578.6C623.859 572.2 618.459 564.8 615.659 556.4C615.459 556 614.859 554.4 613.859 551.6C613.059 548.8 612.659 544.6 612.659 539C612.659 531.6 613.059 522.3 613.859 511.1C614.459 503.9 614.759 497.3 614.759 491.3C614.759 489.5 614.059 488 612.659 486.8C611.459 485.6 610.059 485 608.459 485C607.259 485 605.859 485.2 604.259 485.6C602.859 485.8 601.359 485.9 599.759 485.9ZM772.479 481.7C767.279 478.1 764.679 474.3 764.679 470.3C764.679 467.5 765.879 464.9 768.279 462.5C770.679 460.1 774.279 458.9 779.079 458.9C784.679 458.9 789.679 460.4 794.079 463.4C798.679 466.2 801.879 470.3 803.679 475.7C808.279 470.3 813.479 466 819.279 462.8C825.279 459.6 831.379 458 837.579 458C844.979 458 851.679 460 857.679 464C863.679 468 866.679 473.4 866.679 480.2C866.679 484 864.979 487.9 861.579 491.9C858.379 495.9 855.079 497.9 851.679 497.9C849.879 497.9 848.279 497.5 846.879 496.7C845.679 495.7 844.179 494.3 842.379 492.5C840.379 490.5 838.679 489.1 837.279 488.3C835.879 487.3 834.279 486.8 832.479 486.8C829.279 486.8 826.279 487.3 823.479 488.3C820.679 489.3 818.779 490.5 817.779 491.9C814.579 496.9 812.179 501.4 810.579 505.4C809.179 509.4 808.479 513.7 808.479 518.3C808.479 521.7 808.379 524.4 808.179 526.4L807.879 543.5C807.879 546.1 807.979 549 808.179 552.2C808.379 555.4 808.579 557.8 808.779 559.4C809.379 564.8 809.679 570 809.679 575C809.679 578.4 808.379 581.4 805.779 584C803.179 586.6 799.979 587.9 796.179 587.9C790.179 587.9 785.779 586.8 782.979 584.6C780.179 582.2 778.779 577.9 778.779 571.7L778.479 552.5C778.279 548.7 778.179 543.3 778.179 536.3L778.479 516.5C778.879 506.9 779.079 499.1 779.079 493.1C779.079 490.9 778.579 488.9 777.579 487.1C776.779 485.3 775.079 483.5 772.479 481.7Z" fill="white"/>
<path d="M232.5 636C232.5 636 363.43 606.814 448 611.5C533.414 616.233 576.747 672.109 661.5 660.5C715.072 653.162 745.989 641.464 791 611.5" stroke="white" stroke-width="5" stroke-linecap="round" stroke-dasharray="10 10"/>
<g clip-path="url(#clip0_1156_9819)">
<path d="M843.5 612H835.232L824.615 590.907C823.969 589.725 823.017 588.738 821.859 588.05C820.7 587.362 819.377 587 818.03 587H817.575C816.555 586.998 815.548 587.235 814.635 587.689C813.721 588.144 812.926 588.805 812.313 589.621C811.699 590.436 811.284 591.383 811.099 592.386C810.915 593.39 810.966 594.422 811.25 595.402L816.07 612H810.11C809.124 612.002 808.148 611.81 807.237 611.432C806.327 611.055 805.5 610.501 804.805 609.802L801.262 606.25C800.357 605.345 799.187 604.753 797.922 604.558C796.657 604.364 795.363 604.577 794.227 605.167C793.525 605.53 792.904 606.032 792.402 606.644C791.901 607.255 791.53 607.962 791.312 608.722C791.071 609.538 790.998 610.393 791.096 611.238C791.194 612.083 791.461 612.899 791.882 613.637L795.917 620.7C797.013 622.611 798.593 624.2 800.498 625.306C802.403 626.412 804.567 626.997 806.77 627H816.047L811.877 638.117C811.504 639.112 811.377 640.182 811.508 641.236C811.639 642.29 812.023 643.297 812.628 644.17C813.232 645.043 814.04 645.756 814.981 646.249C815.921 646.742 816.968 647 818.03 647C819.354 647.007 820.656 646.66 821.801 645.995C822.946 645.33 823.892 644.371 824.542 643.217L834.66 627H843.5C845.489 627 847.397 626.21 848.803 624.803C850.21 623.397 851 621.489 851 619.5C851 617.511 850.21 615.603 848.803 614.197C847.397 612.79 845.489 612 843.5 612ZM816.062 594.012C815.995 593.778 815.982 593.531 816.026 593.291C816.07 593.05 816.17 592.824 816.316 592.629C816.463 592.433 816.653 592.275 816.871 592.166C817.09 592.057 817.331 592 817.575 592H818.03C818.466 591.996 818.895 592.108 819.274 592.323C819.653 592.539 819.968 592.851 820.187 593.227L829.637 612H821.275L816.062 594.012ZM843.5 622H833.272C832.848 622 832.431 622.108 832.06 622.314C831.689 622.52 831.377 622.817 831.152 623.177L820.225 640.697C820.01 641.092 819.692 641.421 819.306 641.65C818.92 641.879 818.479 642 818.03 642C817.776 642 817.525 641.939 817.3 641.821C817.075 641.703 816.882 641.532 816.737 641.323C816.593 641.114 816.501 640.873 816.47 640.621C816.439 640.369 816.47 640.113 816.56 639.875L821.995 625.375C822.136 624.997 822.184 624.59 822.134 624.189C822.083 623.789 821.937 623.406 821.707 623.074C821.477 622.743 821.169 622.472 820.812 622.285C820.454 622.097 820.056 622 819.652 622H806.77C805.45 621.998 804.153 621.647 803.012 620.983C801.871 620.32 800.925 619.366 800.27 618.22L796.222 611.155C796.138 611.004 796.084 610.838 796.064 610.667C796.043 610.495 796.057 610.321 796.105 610.155C796.13 610.044 796.178 609.94 796.246 609.849C796.314 609.758 796.401 609.683 796.5 609.627C796.654 609.546 796.825 609.502 797 609.5C797.268 609.502 797.525 609.607 797.717 609.795L801.26 613.337C802.42 614.503 803.799 615.427 805.318 616.055C806.837 616.684 808.466 617.005 810.11 617H843.5C844.163 617 844.799 617.263 845.268 617.732C845.736 618.201 846 618.837 846 619.5C846 620.163 845.736 620.799 845.268 621.268C844.799 621.736 844.163 622 843.5 622Z" fill="white"/>
</g>
<g clip-path="url(#clip1_1156_9819)">
<path d="M523 447C509.155 447 495.622 451.105 484.11 458.797C472.599 466.489 463.627 477.421 458.328 490.212C453.03 503.003 451.644 517.078 454.345 530.656C457.046 544.235 463.713 556.708 473.503 566.497C483.292 576.287 495.765 582.954 509.344 585.655C522.922 588.356 536.997 586.97 549.788 581.672C562.579 576.373 573.511 567.401 581.203 555.89C588.895 544.378 593 530.845 593 517C592.98 498.441 585.599 480.648 572.475 467.525C559.352 454.401 541.559 447.02 523 447V447ZM581.333 517C581.34 528.432 577.967 539.61 571.638 549.13L564.685 542.171C564.14 541.624 563.834 540.884 563.833 540.112V534.5C563.833 529.859 561.99 525.408 558.708 522.126C555.426 518.844 550.975 517 546.333 517H528.833C527.286 517 525.803 516.385 524.709 515.291C523.615 514.197 523 512.714 523 511.167V508.25C523 507.476 523.307 506.735 523.854 506.188C524.401 505.641 525.143 505.333 525.917 505.333C529.784 505.333 533.494 503.797 536.229 501.062C538.964 498.327 540.5 494.618 540.5 490.75V484.917C540.5 484.143 540.807 483.401 541.354 482.854C541.901 482.307 542.643 482 543.417 482H551.461C555.325 481.989 559.029 480.455 561.768 477.73L563.968 475.531C569.469 480.945 573.839 487.4 576.82 494.519C579.802 501.639 581.336 509.281 581.333 517ZM464.953 522.618L483.374 541.039C484.995 542.671 486.924 543.964 489.049 544.844C491.174 545.725 493.453 546.174 495.753 546.167H511.333C512.88 546.167 514.364 546.781 515.458 547.875C516.552 548.969 517.167 550.453 517.167 552V575.036C503.751 573.666 491.222 567.699 481.705 558.144C472.189 548.59 466.27 536.038 464.953 522.618V522.618ZM528.833 575.036V552C528.833 547.359 526.99 542.908 523.708 539.626C520.426 536.344 515.975 534.5 511.333 534.5H495.753C494.986 534.501 494.226 534.35 493.517 534.057C492.809 533.763 492.165 533.333 491.623 532.791L465.618 506.786C467.287 497.296 471.286 488.369 477.256 480.806C483.226 473.243 490.98 467.281 499.823 463.454C508.666 459.626 518.32 458.054 527.92 458.878C537.52 459.702 546.766 462.897 554.827 468.175L553.52 469.482C552.971 470.023 552.232 470.329 551.461 470.333H543.417C539.549 470.333 535.84 471.87 533.105 474.605C530.37 477.34 528.833 481.049 528.833 484.917V490.75C528.833 491.524 528.526 492.265 527.979 492.812C527.432 493.359 526.69 493.667 525.917 493.667C522.049 493.667 518.34 495.203 515.605 497.938C512.87 500.673 511.333 504.382 511.333 508.25V511.167C511.333 515.808 513.177 520.259 516.459 523.541C519.741 526.823 524.192 528.667 528.833 528.667H546.333C547.88 528.667 549.364 529.281 550.458 530.375C551.552 531.469 552.167 532.953 552.167 534.5V540.112C552.178 543.976 553.712 547.679 556.437 550.419L564.236 558.218C554.736 567.751 542.224 573.695 528.833 575.036V575.036Z" fill="white"/>
</g>
<defs>
<clipPath id="clip0_1156_9819">
<rect width="60" height="60" fill="white" transform="translate(791 587)"/>
</clipPath>
<clipPath id="clip1_1156_9819">
<rect width="140" height="140" fill="white" transform="translate(453 447)"/>
</clipPath>
</defs>
</svg>
