<svg width="24" height="24" viewBox="0 0 24 24" fill="none" xmlns="http://www.w3.org/2000/svg">
<path d="M12 9.99956C11.315 9.99956 10.651 10.0396 10 10.0996V16.9996C10 17.2648 9.89464 17.5191 9.70711 17.7067C9.51957 17.8942 9.26522 17.9996 9 17.9996C8.73478 17.9996 8.48043 17.8942 8.29289 17.7067C8.10536 17.5191 8 17.2648 8 16.9996L7.978 8.11456L12.987 6.03856C13.2921 5.88353 13.5523 5.6528 13.7428 5.36844C13.9332 5.08408 14.0475 4.75561 14.0747 4.41446C14.1019 4.0733 14.0411 3.73088 13.8981 3.41995C13.7551 3.10901 13.5347 2.83997 13.258 2.63856C13.226 2.60956 8.9 0.211563 8.9 0.211563C8.59494 0.0578404 8.25558 -0.0151821 7.91429 -0.000542741C7.573 0.0140966 7.24114 0.11591 6.95036 0.295191C6.65958 0.474472 6.41957 0.725244 6.2532 1.0236C6.08684 1.32196 5.99967 1.65796 6 1.99956V10.9216C2.392 12.1146 0 14.3606 0 16.9996C0 20.9246 5.271 23.9996 12 23.9996C18.729 23.9996 24 20.9246 24 16.9996C24 13.0746 18.729 9.99956 12 9.99956ZM16 18.9996C15.6044 18.9996 15.2178 18.8823 14.8889 18.6625C14.56 18.4427 14.3036 18.1304 14.1522 17.7649C14.0009 17.3995 13.9613 16.9973 14.0384 16.6094C14.1156 16.2214 14.3061 15.8651 14.5858 15.5854C14.8655 15.3056 15.2219 15.1152 15.6098 15.038C15.9978 14.9608 16.3999 15.0004 16.7654 15.1518C17.1308 15.3032 17.4432 15.5595 17.6629 15.8884C17.8827 16.2173 18 16.604 18 16.9996C18 17.53 17.7893 18.0387 17.4142 18.4138C17.0391 18.7889 16.5304 18.9996 16 18.9996V18.9996Z"/>
</svg>
