<svg width="19" height="20" viewBox="0 0 19 20" fill="none" xmlns="http://www.w3.org/2000/svg">
<g clip-path="url(#clip0_311_2887)">
<path d="M18.768 18.1493L14.0425 13.4238C15.3303 11.8489 15.9634 9.83926 15.811 7.81059C15.6586 5.78192 14.7322 3.88944 13.2236 2.52459C11.715 1.15975 9.7395 0.426972 7.70575 0.477822C5.672 0.528672 3.73559 1.35926 2.29706 2.79779C0.858531 4.23632 0.0279395 6.17273 -0.0229107 8.20648C-0.0737608 10.2402 0.65902 12.2157 2.02386 13.7244C3.3887 15.233 5.28118 16.1593 7.30985 16.3117C9.33852 16.4642 11.3482 15.831 12.9231 14.5433L17.6486 19.2687C17.7979 19.4129 17.9979 19.4927 18.2054 19.4909C18.413 19.4891 18.6116 19.4059 18.7583 19.2591C18.9051 19.1123 18.9884 18.9137 18.9902 18.7062C18.992 18.4986 18.9122 18.2986 18.768 18.1493ZM7.91662 14.7507C6.664 14.7507 5.43952 14.3792 4.398 13.6833C3.35649 12.9874 2.54473 11.9983 2.06538 10.841C1.58602 9.68375 1.4606 8.41032 1.70498 7.18178C1.94935 5.95323 2.55254 4.82474 3.43827 3.93901C4.32401 3.05327 5.4525 2.45008 6.68104 2.20571C7.90959 1.96134 9.18301 2.08676 10.3403 2.56611C11.4975 3.04547 12.4867 3.85723 13.1826 4.89874C13.8785 5.94025 14.25 7.16473 14.25 8.41735C14.2481 10.0965 13.5802 11.7063 12.3929 12.8936C11.2056 14.0809 9.59574 14.7488 7.91662 14.7507Z" fill="#FBFBFB"/>
</g>
<defs>
<clipPath id="clip0_311_2887">
<rect width="19" height="19" fill="white" transform="translate(0 0.5)"/>
</clipPath>
</defs>
</svg>
