<svg width="24" height="24" viewBox="0 0 24 24" fill="none" xmlns="http://www.w3.org/2000/svg">
<g clip-path="url(#clip0_311_2899)">
<path d="M22.9998 11C23.265 11 23.5193 10.8946 23.7069 10.7071C23.8944 10.5196 23.9998 10.2652 23.9998 10C23.9998 9.73478 23.8944 9.48043 23.7069 9.29289C23.5193 9.10536 23.265 9 22.9998 9H21.5998L20.8298 6.519C20.5486 5.60459 20.0093 4.7909 19.2766 4.17582C18.5439 3.56074 17.649 3.17049 16.6998 3.052C16.3204 2.14915 15.6833 1.37814 14.8682 0.835324C14.0531 0.292507 13.0961 0.00196172 12.1168 0L11.8828 0C10.9034 0.00196172 9.94642 0.292507 9.1313 0.835324C8.31619 1.37814 7.67913 2.14915 7.29975 3.052C6.35095 3.17077 5.45665 3.56105 4.72434 4.17591C3.99204 4.79078 3.4529 5.60406 3.17175 6.518L2.39975 9H0.999752C0.734535 9 0.480181 9.10536 0.292645 9.29289C0.105108 9.48043 -0.000248452 9.73478 -0.000248452 10C-0.000248452 10.2652 0.105108 10.5196 0.292645 10.7071C0.480181 10.8946 0.734535 11 0.999752 11H1.78075L1.06575 13.3C0.657222 13.7368 0.353 14.2606 0.175944 14.8318C-0.00111131 15.4031 -0.0463964 16.0071 0.0434916 16.5984C0.13338 17.1897 0.356103 17.7529 0.694928 18.2458C1.03375 18.7386 1.47987 19.1483 1.99975 19.444V21C1.99975 21.7956 2.31582 22.5587 2.87843 23.1213C3.44104 23.6839 4.2041 24 4.99975 24C5.7954 24 6.55846 23.6839 7.12107 23.1213C7.68368 22.5587 7.99975 21.7956 7.99975 21V20H15.9998V21C15.9998 21.7956 16.3158 22.5587 16.8784 23.1213C17.441 23.6839 18.2041 24 18.9998 24C19.7954 24 20.5585 23.6839 21.1211 23.1213C21.6837 22.5587 21.9998 21.7956 21.9998 21V19.444C22.5193 19.1483 22.9651 18.7387 23.3037 18.246C23.6423 17.7533 23.8649 17.1903 23.9548 16.5993C24.0446 16.0083 23.9995 15.4045 23.8226 14.8335C23.6458 14.2624 23.3419 13.7388 22.9338 13.302L22.2188 11H22.9998ZM11.8828 2H12.1168C12.5372 2.00085 12.9528 2.09035 13.3364 2.26266C13.7199 2.43497 14.0629 2.68621 14.3428 3H9.65675C9.93653 2.68606 10.2794 2.43472 10.663 2.2624C11.0466 2.09008 11.4622 2.00066 11.8828 2V2ZM5.08275 7.11C5.27067 6.49762 5.65053 5.96191 6.16625 5.58196C6.68197 5.20202 7.30619 4.99799 7.94675 5H16.0528C16.6936 4.99784 17.3182 5.20191 17.8341 5.58207C18.35 5.96222 18.73 6.49827 18.9178 7.111L20.4498 12.045C20.3007 12.0214 20.1505 12.0064 19.9998 12H3.99975C3.84901 12.0064 3.69877 12.0214 3.54975 12.045L5.08275 7.11ZM5.99975 21C5.99975 21.2652 5.8944 21.5196 5.70686 21.7071C5.51932 21.8946 5.26497 22 4.99975 22C4.73454 22 4.48018 21.8946 4.29265 21.7071C4.10511 21.5196 3.99975 21.2652 3.99975 21V20H5.99975V21ZM19.9998 21C19.9998 21.2652 19.8944 21.5196 19.7069 21.7071C19.5193 21.8946 19.265 22 18.9998 22C18.7345 22 18.4802 21.8946 18.2926 21.7071C18.1051 21.5196 17.9998 21.2652 17.9998 21V20H19.9998V21ZM19.9998 18H3.99975C3.46932 18 2.96061 17.7893 2.58554 17.4142C2.21047 17.0391 1.99975 16.5304 1.99975 16C1.99975 15.4696 2.21047 14.9609 2.58554 14.5858C2.96061 14.2107 3.46932 14 3.99975 14V15C3.99975 15.2652 4.10511 15.5196 4.29265 15.7071C4.48018 15.8946 4.73454 16 4.99975 16C5.26497 16 5.51932 15.8946 5.70686 15.7071C5.8944 15.5196 5.99975 15.2652 5.99975 15V14H17.9998V15C17.9998 15.2652 18.1051 15.5196 18.2926 15.7071C18.4802 15.8946 18.7345 16 18.9998 16C19.265 16 19.5193 15.8946 19.7069 15.7071C19.8944 15.5196 19.9998 15.2652 19.9998 15V14C20.5302 14 21.0389 14.2107 21.414 14.5858C21.789 14.9609 21.9998 15.4696 21.9998 16C21.9998 16.5304 21.789 17.0391 21.414 17.4142C21.0389 17.7893 20.5302 18 19.9998 18Z" fill="#FBFBFB"/>
</g>
<defs>
<clipPath id="clip0_311_2899">
<rect width="24" height="24" fill="white"/>
</clipPath>
</defs>
</svg>
