<svg width="568" height="570" viewBox="0 0 568 570" fill="none" xmlns="http://www.w3.org/2000/svg">
<path d="M627.102 520.412C627.102 520.412 607.002 552.181 499.353 538.558C499.353 538.558 471.814 536.032 434.767 527.224C434.767 527.224 365.346 511.9 296.507 526.643C296.507 526.643 145.844 573.459 112.346 524.117C112.346 524.117 100.307 503.471 85.891 494.975C84.7401 494.313 83.5552 493.717 82.3415 493.19C78.9541 491.661 75.7067 489.815 72.639 487.675C65.0935 482.365 59.3586 474.7 56.258 465.783C55.0691 462.428 54.2552 458.941 53.8324 455.393C51.4068 434.738 51.4068 392.957 80.4172 350.924C89.8756 337.92 100.411 325.805 111.902 314.718C118.042 308.919 123.72 302.612 128.881 295.857C140.443 280.65 157.802 254.784 159.379 234.938C159.444 234.028 159.452 233.136 159.444 232.235C159.371 217.289 160.543 76.8755 230.797 88.6889C230.797 88.6889 255.53 92.6547 274.402 98.9446C274.402 98.9446 323.076 117.806 366.082 74.981C366.082 74.981 436.263 3.85641 470.593 37.2589C470.593 37.2589 486.214 47.2452 500.056 67.3355C511.635 84.3743 518.395 104.453 519.567 125.291C520.941 147.335 528.121 196.618 564.327 218.678C564.327 218.678 621.531 236.074 605.191 328.055C605.191 328.055 593.75 382.592 629.164 420.037C629.164 420.037 643.071 440.826 646.273 465.817C648.722 483.869 645.424 504.195 627.102 520.412Z" fill="#0071F2"/>
<path opacity="0.7" d="M627.102 520.412C627.102 520.412 607.002 552.181 499.353 538.558C499.353 538.558 471.814 536.032 434.767 527.224C434.767 527.224 365.346 511.9 296.507 526.643C296.507 526.643 145.844 573.459 112.346 524.117C112.346 524.117 100.307 503.471 85.891 494.975C84.7401 494.313 83.5552 493.717 82.3415 493.19C78.9541 491.661 75.7067 489.815 72.639 487.675C65.0935 482.365 59.3586 474.7 56.258 465.783C55.0691 462.428 54.2552 458.941 53.8324 455.393C51.4068 434.738 51.4068 392.957 80.4172 350.924C89.8756 337.92 100.411 325.805 111.902 314.718C118.042 308.919 123.72 302.612 128.881 295.857C140.443 280.65 157.802 254.784 159.379 234.938C159.444 234.028 159.452 233.136 159.444 232.235C159.371 217.289 160.543 76.8755 230.797 88.6889C230.797 88.6889 255.53 92.6547 274.402 98.9446C274.402 98.9446 323.076 117.806 366.082 74.981C366.082 74.981 436.263 3.85641 470.593 37.2589C470.593 37.2589 486.214 47.2452 500.056 67.3355C511.635 84.3743 518.395 104.453 519.567 125.291C520.941 147.335 528.121 196.618 564.327 218.678C564.327 218.678 621.531 236.074 605.191 328.055C605.191 328.055 593.75 382.592 629.164 420.037C629.164 420.037 643.071 440.826 646.273 465.817C648.722 483.869 645.424 504.195 627.102 520.412Z" fill="white"/>
<path opacity="0.2" d="M627.102 520.413C627.102 520.413 607.002 552.182 499.353 538.558C499.353 538.558 471.814 536.032 434.767 527.224C434.767 527.224 365.346 511.9 296.507 526.643C296.507 526.643 145.844 573.459 112.346 524.117C112.346 524.117 100.307 503.471 85.891 494.975C84.7402 494.313 83.5552 493.717 82.3415 493.19C78.9541 491.661 75.7067 489.815 72.639 487.675C65.0936 482.365 59.3586 474.7 56.2581 465.783H646.394C648.723 483.869 645.424 504.195 627.102 520.413Z" fill="black"/>
<path d="M429.649 511.327C473.303 511.327 508.692 505.069 508.692 497.35C508.692 489.63 473.303 483.373 429.649 483.373C385.995 483.373 350.606 489.63 350.606 497.35C350.606 505.069 385.995 511.327 429.649 511.327Z" fill="#BCBEC0"/>
<path d="M428.986 507.075C467.858 507.075 499.369 502.695 499.369 497.291C499.369 491.887 467.858 487.507 428.986 487.507C390.114 487.507 358.603 491.887 358.603 497.291C358.603 502.695 390.114 507.075 428.986 507.075Z" fill="#D1D3D4"/>
<path d="M207.05 467.458V472.915L207.988 483.238L219.041 480.063L219.801 469.277C219.801 469.277 209.015 467.905 207.05 467.458Z" fill="#F9B499"/>
<path d="M261.861 467.021L264.028 482.244L273.375 485.343L277.45 483.238L275.849 465.766L261.861 467.021Z" fill="#F9B499"/>
<path d="M216.688 288.397C208.431 284.28 200.532 279.425 193.079 273.889C183.894 263.035 203.291 222.611 203.291 222.611C210.244 205.77 236.74 202.124 236.74 202.124H246.814C251.108 200.811 263.357 203.674 263.357 203.674C283.797 200.483 299.159 238.786 299.159 238.786L319.591 223.04L325.922 229.633C322.453 238.567 305.094 257.933 305.094 257.933C291.947 266.025 278.614 248.721 277.943 247.829L219.728 256.038L218.297 249.445C217.489 253.058 211.142 263.061 211.142 263.061L218.532 269.073" fill="#2F2E41"/>
<path d="M222.081 206.292C222.081 206.292 235.551 230.896 219.656 256.013L215.572 300.909L209.848 380.058L201.261 466.01C201.261 466.01 217.198 470.911 231.501 468.991C231.501 468.991 246.612 353.459 247.227 341.334C247.227 341.334 251.108 457.927 252.135 468.57C252.135 468.57 272.971 472.393 283.595 467.501L281.169 355.589L278.509 282.612L277.903 247.795C277.903 247.795 271.774 213.273 263.397 203.674L258.279 202.655L261.352 218.358C261.352 218.358 260.737 233.675 247.049 232.824C247.049 232.824 238.47 234.954 233.975 221.339L227.264 204.423L222.081 206.292Z" fill="#0071F2"/>
<path opacity="0.2" d="M218.216 249.42L219.647 256.013C219.647 256.013 228.768 244.301 227.272 225.802C227.272 225.802 222.914 243.678 218.216 249.42Z" fill="black"/>
<path opacity="0.2" d="M303.485 258.32C303.533 258.309 303.584 258.318 303.627 258.343C303.67 258.368 303.702 258.409 303.718 258.458C303.734 258.507 303.732 258.56 303.713 258.608C303.694 258.655 303.659 258.694 303.614 258.716C290.952 264.787 278.549 248.696 277.903 247.837C277.903 247.837 279.075 225.726 277.975 222.804C280.91 229.182 282.783 236.032 283.514 243.063C283.595 243.973 283.842 244.859 284.242 245.673C286.166 249.513 292.691 260.425 303.485 258.32Z" fill="black"/>
<path d="M216.526 290.274C219.138 290.418 221.742 290.561 224.345 290.637C226.949 290.712 229.552 290.839 232.164 290.881C237.371 290.973 242.578 291.032 247.777 290.805C252.975 290.578 258.182 290.359 263.341 289.702C263.988 289.626 264.643 289.567 265.281 289.475L267.206 289.163C268.491 288.944 269.793 288.792 271.054 288.473C272.316 288.153 273.609 287.959 274.871 287.631L278.63 286.519C273.732 288.457 268.634 289.791 263.438 290.493C258.256 291.238 253.038 291.685 247.809 291.832C242.586 291.967 237.354 291.933 232.139 291.672C226.924 291.411 221.709 290.982 216.526 290.274Z" fill="white"/>
<path d="M216.13 294.703C218.766 294.948 221.402 295.2 224.046 295.377C226.69 295.554 229.318 295.773 231.962 295.916C237.241 296.202 242.529 296.446 247.809 296.404C253.088 296.464 258.366 296.202 263.616 295.621C266.236 295.343 268.837 294.89 271.402 294.266C273.985 293.68 276.477 292.725 278.808 291.428C276.556 292.904 274.103 294.017 271.531 294.729C268.965 295.474 266.353 296.037 263.713 296.413C258.441 297.109 253.131 297.45 247.817 297.431C242.505 297.389 237.201 297.162 231.921 296.707C226.641 296.253 221.354 295.604 216.13 294.703Z" fill="white"/>
<path d="M205.094 467.021L206.986 445.541L208.95 424.07L212.993 381.127L217.222 338.185L219.364 316.739C220.092 309.59 220.86 302.425 221.467 295.284C220.521 309.599 219.219 323.913 217.949 338.227L213.907 381.169L209.63 424.07L207.398 445.507L205.094 467.021Z" fill="white"/>
<path d="M280.239 468.688L279.309 446.796L278.485 424.895L276.981 381.094L275.695 337.284L275.129 315.375L274.668 293.466L275.598 315.358L276.423 337.259L277.927 381.06L279.212 424.87L279.778 446.779L280.239 468.688Z" fill="white"/>
<path opacity="0.2" d="M247.227 341.334L246.24 328.005L252.709 330.691C252.709 330.691 255.474 376.159 249.571 408.956L247.227 341.334Z" fill="black"/>
<path d="M508.692 86.4239H329.593V468.696H508.692V86.4239Z" fill="#2F2E41"/>
<path d="M499.369 96.1154H341.615V459.434H499.369V96.1154Z" fill="white"/>
<path d="M532.237 86.4239L457.495 54.1917L453.622 497.417L532.237 468.688V86.4239Z" fill="#0071F2"/>
<path opacity="0.2" d="M462.775 68.1438L461.958 157.296L528.153 174.102V94.7429L462.775 68.1438Z" fill="white"/>
<path opacity="0.2" d="M461.958 171.122L460.527 262.614L528.76 266.446V185.806L461.958 171.122Z" fill="white"/>
<path opacity="0.2" d="M460.527 275.809L459.913 370.274L527.943 361.761L528.76 278.991L460.527 275.809Z" fill="white"/>
<path opacity="0.2" d="M459.913 384.95L528.76 373.036V457.716L459.913 481.756V384.95Z" fill="white"/>
<path d="M471.863 247.079H470.561C468.552 247.079 466.923 248.776 466.923 250.868V291.588C466.923 293.681 468.552 295.377 470.561 295.377H471.863C473.872 295.377 475.501 293.681 475.501 291.588V250.868C475.501 248.776 473.872 247.079 471.863 247.079Z" fill="#2F2E41"/>
<path opacity="0.4" d="M471.863 247.079H470.561C468.552 247.079 466.923 248.776 466.923 250.868V291.588C466.923 293.681 468.552 295.377 470.561 295.377H471.863C473.872 295.377 475.501 293.681 475.501 291.588V250.868C475.501 248.776 473.872 247.079 471.863 247.079Z" fill="black"/>
<path d="M203.841 175.786C203.841 175.786 191.761 179.011 183.094 170.625C176.625 164.335 185.673 157.447 190.621 154.391C194.845 151.838 198.704 148.681 202.086 145.011C209.517 136.818 217.675 122.959 208.174 107.415C208.174 107.415 195.165 77.1028 152.741 83.8389C152.741 83.8389 106.29 89.6488 118.063 138.022C118.063 138.022 127.038 165.034 162.031 176.359C162.031 176.393 186.772 183.844 203.841 175.786Z" fill="#0071F2"/>
<path d="M190.572 110.303L188.697 107.44C189.065 107.138 189.371 106.761 189.596 106.332C189.821 105.903 189.96 105.431 190.005 104.945C190.049 104.458 189.999 103.968 189.856 103.502C189.713 103.037 189.481 102.606 189.174 102.237L188.47 101.395C187.895 100.701 187.088 100.261 186.212 100.164C185.337 100.067 184.459 100.321 183.756 100.873L157.948 121.174C154.269 124.542 149.151 123.767 149.151 123.767C148.495 123.643 147.829 123.578 147.162 123.573C144.833 123.572 142.556 124.289 140.619 125.635C138.682 126.981 137.172 128.896 136.28 131.136C135.388 133.376 135.153 135.841 135.607 138.22C136.06 140.598 137.181 142.784 138.827 144.499C140.473 146.214 142.57 147.383 144.854 147.856C147.138 148.33 149.506 148.088 151.657 147.16C153.809 146.233 155.648 144.661 156.942 142.645C158.236 140.629 158.926 138.258 158.926 135.833C158.926 135.463 158.926 135.109 158.878 134.755H158.926V134.688C158.957 133.745 159.186 132.821 159.597 131.98C160.007 131.139 160.59 130.402 161.303 129.821L177.555 116.568L179.609 119.17C179.928 119.552 180.376 119.793 180.86 119.845C181.345 119.896 181.829 119.753 182.216 119.446C182.604 119.138 182.864 118.688 182.944 118.188C183.024 117.688 182.919 117.175 182.649 116.753L180.927 114.227L185.834 109.613L187.702 112.349C187.98 112.699 188.373 112.928 188.804 112.991C189.236 113.054 189.674 112.947 190.034 112.69C190.393 112.434 190.648 112.047 190.747 111.606C190.847 111.164 190.785 110.699 190.572 110.303ZM143.92 143.529C142.938 143.529 141.978 143.226 141.162 142.658C140.345 142.09 139.709 141.282 139.333 140.337C138.957 139.393 138.859 138.353 139.051 137.35C139.242 136.348 139.715 135.426 140.409 134.703C141.104 133.98 141.988 133.488 142.951 133.288C143.914 133.089 144.912 133.191 145.82 133.583C146.727 133.974 147.502 134.637 148.048 135.487C148.593 136.337 148.884 137.337 148.884 138.359C148.884 139.73 148.361 141.045 147.43 142.015C146.499 142.984 145.236 143.529 143.92 143.529Z" fill="white"/>
<path d="M258.247 298.189H260.616V295.326C260.617 294.169 260.399 293.023 259.975 291.953C259.55 290.884 258.927 289.912 258.142 289.093C257.356 288.274 256.424 287.625 255.397 287.182C254.371 286.739 253.27 286.511 252.159 286.511H238.794C236.527 286.511 234.353 287.448 232.751 289.117C231.148 290.786 230.247 293.05 230.247 295.411V298.189H232.786C232.786 297.013 233.01 295.848 233.445 294.762C233.88 293.676 234.518 292.691 235.321 291.863C236.124 291.035 237.076 290.382 238.124 289.94C239.171 289.498 240.292 289.277 241.421 289.289L249.879 289.373C252.107 289.4 254.235 290.341 255.802 291.991C257.369 293.641 258.247 295.869 258.247 298.189Z" fill="#2F2E41"/>
<path d="M230.247 291.647L234.735 293.061C235.445 293.277 236.056 293.753 236.457 294.4C237.33 295.874 239.554 298.332 244.009 296.084C244.908 295.619 245.728 295.001 246.434 294.257C247.963 292.666 249.976 289.988 245.286 290.653C244.414 290.62 243.553 290.447 242.731 290.14C242.427 290.01 242.176 289.775 242.02 289.473C241.865 289.172 241.815 288.824 241.879 288.488C241.943 288.153 242.117 287.851 242.371 287.634C242.626 287.418 242.944 287.301 243.273 287.302H246.248C246.326 287.303 246.402 287.281 246.467 287.238C246.533 287.196 246.585 287.135 246.618 287.062C246.651 286.989 246.664 286.908 246.654 286.829C246.645 286.749 246.613 286.673 246.564 286.612C245.755 285.551 243.516 283.783 237.937 285.559L235.188 283.53C234.091 286.559 232.41 289.322 230.247 291.647Z" fill="#F9B499"/>
<path d="M218.095 268.753L235.074 282.578C235.164 282.649 235.232 282.746 235.27 282.857C235.307 282.968 235.312 283.088 235.285 283.202C233.918 288.574 229.584 292.371 228.485 293.306C228.408 293.367 228.317 293.408 228.221 293.424C228.125 293.44 228.027 293.431 227.935 293.398C224.119 291.942 219.801 289.98 216.373 288.287" fill="#2F2E41"/>
<path d="M247.219 293.39C246.762 293.57 246.283 293.678 245.796 293.71C245.313 293.748 244.828 293.731 244.348 293.659C243.861 293.584 243.386 293.434 242.941 293.213C242.474 293.002 242.085 292.639 241.834 292.177C242.257 292.364 242.699 292.499 243.152 292.582C243.588 292.674 244.025 292.758 244.478 292.817C245.402 292.945 246.318 293.136 247.219 293.39Z" fill="#F7A48B"/>
<path d="M244.696 295.705C244.361 295.863 243.996 295.938 243.629 295.924C243.275 295.919 242.924 295.862 242.586 295.756C241.888 295.546 241.283 295.091 240.872 294.468C241.215 294.51 241.556 294.577 241.89 294.67C242.214 294.754 242.513 294.855 242.828 294.948C243.468 295.151 244.092 295.405 244.696 295.705Z" fill="#F7A48B"/>
<path d="M272.477 303.123L272.033 311.704L271.887 314.39L270.699 337.259C270.656 338.043 270.329 338.781 269.785 339.325C269.24 339.869 268.518 340.177 267.764 340.189L224.014 340.66H223.884C223.151 340.672 222.44 340.395 221.894 339.884C221.349 339.374 221.008 338.668 220.941 337.907L218.305 310.112L217.901 305.759C217.81 304.801 217.912 303.833 218.201 302.918C218.491 302.003 218.961 301.162 219.582 300.448C220.203 299.734 220.96 299.164 221.806 298.773C222.651 298.383 223.566 298.181 224.491 298.181H267.95C268.563 298.179 269.171 298.307 269.736 298.558C270.3 298.808 270.81 299.176 271.234 299.639C271.657 300.101 271.986 300.649 272.2 301.248C272.414 301.847 272.508 302.485 272.477 303.123Z" fill="#0071F2"/>
<path opacity="0.2" d="M272.477 303.123L272.033 311.704L271.887 314.39L270.699 337.259C270.656 338.043 270.329 338.781 269.785 339.325C269.24 339.869 268.518 340.177 267.764 340.189L224.014 340.66H223.884C223.151 340.672 222.44 340.395 221.894 339.884C221.349 339.374 221.008 338.668 220.941 337.907L218.305 310.112L217.901 305.759C217.81 304.801 217.912 303.833 218.201 302.918C218.491 302.003 218.961 301.162 219.582 300.448C220.203 299.734 220.96 299.164 221.806 298.773C222.651 298.383 223.566 298.181 224.491 298.181H267.95C268.563 298.179 269.171 298.307 269.736 298.558C270.3 298.808 270.81 299.176 271.234 299.639C271.657 300.101 271.986 300.649 272.2 301.248C272.414 301.847 272.508 302.485 272.477 303.123Z" fill="white"/>
<path opacity="0.2" d="M272.025 310.112V314.423H228.194C226.653 314.396 225.154 314.949 223.973 315.981C222.607 317.244 221.386 319.45 221.96 323.281L224.005 340.694H223.876C223.143 340.706 222.432 340.429 221.886 339.918C221.341 339.408 221 338.701 220.933 337.941L218.305 310.112H272.025Z" fill="white"/>
<path d="M246.24 317.513C248.344 317.513 250.049 315.199 250.049 312.344C250.049 309.488 248.344 307.174 246.24 307.174C244.137 307.174 242.432 309.488 242.432 312.344C242.432 315.199 244.137 317.513 246.24 317.513Z" fill="white"/>
<path d="M246.24 313.91C246.723 313.91 247.114 313.208 247.114 312.344C247.114 311.479 246.723 310.777 246.24 310.777C245.758 310.777 245.367 311.479 245.367 312.344C245.367 313.208 245.758 313.91 246.24 313.91Z" fill="#0071F2"/>
<path d="M209.322 475.348C209.322 475.348 207.342 470.439 205.094 475.348C205.094 475.348 202.272 482.842 202.838 487.801L230.482 493.561C230.482 493.561 239.44 494.352 236.392 487.01C233.48 484.004 229.757 481.995 225.72 481.251C224.412 480.741 223.224 479.947 222.235 478.92C221.246 477.893 220.48 476.658 219.987 475.298C219.944 475.182 219.868 475.083 219.77 475.014C219.672 474.944 219.556 474.907 219.437 474.907C219.318 474.907 219.202 474.944 219.104 475.014C219.006 475.083 218.931 475.182 218.887 475.298C217.78 478.101 215.071 481.966 209.322 475.348Z" fill="#2F2E41"/>
<path d="M266.365 479.946C266.365 479.946 263.381 475.626 262.241 480.939C262.241 480.939 261.109 488.896 262.743 493.569L290.912 492.727C290.912 492.727 299.806 491.405 295.262 484.964C291.771 482.721 287.708 481.634 283.611 481.848C282.227 481.66 280.899 481.165 279.715 480.397C278.531 479.628 277.518 478.605 276.746 477.394C276.68 477.291 276.585 477.211 276.474 477.164C276.364 477.118 276.242 477.108 276.125 477.135C276.009 477.163 275.903 477.226 275.822 477.318C275.741 477.409 275.688 477.524 275.671 477.647C275.202 480.636 273.359 485.04 266.365 479.946Z" fill="#2F2E41"/>
<path d="M339.659 236.158C339.495 235.714 339.245 235.309 338.925 234.968C338.605 234.628 338.222 234.359 337.799 234.178C337.375 233.998 336.921 233.909 336.464 233.918C336.006 233.927 335.556 234.033 335.139 234.23L329.884 236.697C329.666 236.805 329.418 236.827 329.186 236.759C328.954 236.691 328.754 236.537 328.622 236.327L321.402 224.934L326.641 221.129C327.31 220.647 327.775 219.914 327.938 219.084C328.1 218.254 327.949 217.391 327.515 216.675C327.08 215.958 326.397 215.444 325.607 215.24C324.818 215.036 323.983 215.158 323.278 215.58L318.144 218.628L298.334 186.631C292.036 178.868 294.688 168.604 294.688 168.604C296.499 164.025 296.931 158.981 295.926 154.141C294.921 149.301 292.526 144.893 289.06 141.503C285.593 138.113 281.219 135.901 276.518 135.159C271.816 134.418 267.009 135.183 262.734 137.353C258.46 139.523 254.92 142.995 252.584 147.308C250.248 151.622 249.227 156.573 249.656 161.505C250.085 166.437 251.944 171.117 254.986 174.923C258.028 178.729 262.109 181.482 266.688 182.817C278.145 186.042 280.676 190.715 280.676 190.715L318.823 251.904C319.824 253.546 321.317 254.799 323.072 255.465C324.827 256.132 326.744 256.177 328.525 255.592C329.069 255.424 329.585 255.168 330.053 254.834C331.378 254.014 332.451 252.82 333.15 251.39C334.711 248.14 333.902 244.494 333.627 243.476C333.602 243.391 333.606 243.3 333.639 243.219C333.671 243.138 333.73 243.07 333.805 243.029L338.179 240.503C338.889 240.088 339.43 239.419 339.702 238.62C339.974 237.821 339.959 236.946 339.659 236.158ZM267.529 164.032C265.392 164.034 263.303 163.375 261.526 162.14C259.748 160.905 258.362 159.149 257.544 157.093C256.725 155.038 256.51 152.776 256.926 150.593C257.341 148.41 258.37 146.405 259.88 144.831C261.39 143.257 263.315 142.185 265.411 141.75C267.506 141.315 269.679 141.538 271.653 142.389C273.627 143.24 275.315 144.682 276.502 146.532C277.689 148.382 278.323 150.557 278.323 152.783C278.323 155.765 277.186 158.625 275.162 160.734C273.138 162.843 270.393 164.03 267.529 164.032Z" fill="#0071F2"/>
<path opacity="0.2" d="M333.118 251.348C332.419 252.778 331.345 253.972 330.021 254.792C329.553 255.126 329.037 255.382 328.493 255.55C326.711 256.135 324.794 256.09 323.04 255.423C321.285 254.756 319.791 253.504 318.79 251.862L280.644 190.673C280.644 190.673 278.113 186 266.656 182.775C263.519 181.871 260.598 180.297 258.077 178.154C255.557 176.01 253.493 173.343 252.016 170.323C250.539 167.303 249.682 163.996 249.499 160.613C249.316 157.229 249.812 153.843 250.954 150.669C250.954 150.669 248.528 179.112 269.259 180.274C269.259 180.274 276.043 179.617 282.633 190.319L318.346 247.576C319.849 250.01 322.182 251.76 324.875 252.474C327.568 253.188 330.421 252.813 332.859 251.424L333.093 251.281L333.118 251.348Z" fill="black"/>
<path d="M318.111 218.628C318.111 218.628 313.616 216.455 311.538 213.172C311.079 212.425 310.816 211.566 310.777 210.681C310.737 209.795 310.922 208.914 311.313 208.127C311.704 207.339 312.287 206.673 313.003 206.194C313.72 205.715 314.544 205.442 315.395 205.4C317.797 205.266 320.173 205.971 322.146 207.404C322.146 207.404 326.189 210.326 325.881 215.352C325.881 215.352 324.685 214.721 322.3 216.144L318.111 218.628Z" fill="#F9B499"/>
<path d="M448.868 54.1917H457.495L453.622 497.417H445.173L448.868 54.1917Z" fill="#0071F2"/>
<path opacity="0.4" d="M448.868 54.1917H457.495L453.622 497.417H445.173L448.868 54.1917Z" fill="black"/>
<path d="M473.844 247.079H472.542C470.533 247.079 468.904 248.776 468.904 250.868V291.588C468.904 293.681 470.533 295.377 472.542 295.377H473.844C475.853 295.377 477.482 293.681 477.482 291.588V250.868C477.482 248.776 475.853 247.079 473.844 247.079Z" fill="#2F2E41"/>
<path opacity="0.4" d="M473.399 279.993C475.167 279.993 476.601 275.673 476.601 270.344C476.601 265.015 475.167 260.695 473.399 260.695C471.631 260.695 470.197 265.015 470.197 270.344C470.197 275.673 471.631 279.993 473.399 279.993Z" fill="black"/>
<path d="M237.71 191.616L236.764 202.133C236.652 203.182 236.942 204.236 237.573 205.063C239.044 206.915 242.012 209.829 245.44 208.642C246.246 208.402 246.969 207.928 247.525 207.274C248.081 206.621 248.446 205.816 248.577 204.954V193.746L237.71 191.616Z" fill="#F9B499"/>
<path d="M242.052 208.145C242.052 208.145 236.061 201.964 239.877 200.272C239.877 200.272 247.089 197.578 248.593 193.746L237.71 191.616L236.764 202.133C236.764 202.133 236.724 205.947 242.052 208.145Z" fill="#F7A48B"/>
<path d="M243.823 196.525C250.95 196.525 256.727 189.249 256.727 180.274C256.727 171.299 250.95 164.023 243.823 164.023C236.696 164.023 230.918 171.299 230.918 180.274C230.918 189.249 236.696 196.525 243.823 196.525Z" fill="#F9B499"/>
<path d="M248.731 170.928C243.273 173.984 239.465 171.922 239.465 171.922C233.878 170.364 233.336 173.058 233.336 173.058C234.428 178.868 231.986 179.407 231.986 179.407L226.755 180.249C226.755 180.249 218.936 171.661 226.755 168.208C226.755 168.208 226.415 158.382 237.128 159.973C237.128 159.973 242.99 152.985 250.388 159.797C250.388 159.797 264.432 160.445 256.307 176.115C256.307 176.14 254.043 167.93 248.731 170.928Z" fill="#2F2E41"/>
<path d="M231.966 185.475C233.432 184.593 233.735 182.282 232.643 180.313C231.551 178.344 229.478 177.462 228.013 178.343C226.547 179.224 226.244 181.535 227.336 183.504C228.427 185.474 230.501 186.356 231.966 185.475Z" fill="#F9B499"/>
</svg>
