<svg width="30" height="30" viewBox="0 0 30 30" fill="none" xmlns="http://www.w3.org/2000/svg">
    <g clip-path="url(#clip0_759_9290)">
        <path
            d="M27.5 8.75C28.163 8.75 28.7989 8.48661 29.2678 8.01777C29.7366 7.54893 30 6.91304 30 6.25V1.25C30 0.918479 29.8683 0.600537 29.6339 0.366117C29.3995 0.131696 29.0815 0 28.75 0C28.4185 0 28.1005 0.131696 27.8661 0.366117C27.6317 0.600537 27.5 0.918479 27.5 1.25V6.25H22.5C22.4775 6.25 22.46 6.26125 22.4375 6.2625C21.8396 4.78126 20.8127 3.51248 19.4886 2.61902C18.1645 1.72557 16.6036 1.2482 15.0063 1.2482C13.4089 1.2482 11.848 1.72557 10.5239 2.61902C9.19977 3.51248 8.17287 4.78126 7.575 6.2625C7.54875 6.26375 7.52625 6.25 7.5 6.25H2.5V1.25C2.5 0.918479 2.3683 0.600537 2.13388 0.366117C1.89946 0.131696 1.58152 0 1.25 0C0.918479 0 0.600537 0.131696 0.366117 0.366117C0.131696 0.600537 0 0.918479 0 1.25L0 6.25C0 6.91304 0.263392 7.54893 0.732233 8.01777C1.20107 8.48661 1.83696 8.75 2.5 8.75H6.85625L5.59 13.75H1.25C0.918479 13.75 0.600537 13.8817 0.366117 14.1161C0.131696 14.3505 0 14.6685 0 15C0 15.3315 0.131696 15.6495 0.366117 15.8839C0.600537 16.1183 0.918479 16.25 1.25 16.25H4.95625L4.775 16.9662L4.75 17.125C4.69427 17.5528 4.66504 17.9836 4.6625 18.415C4.66376 19.3742 4.79967 20.3285 5.06625 21.25H2.5C1.83696 21.25 1.20107 21.5134 0.732233 21.9822C0.263392 22.4511 0 23.087 0 23.75L0 28.75C0 29.0815 0.131696 29.3995 0.366117 29.6339C0.600537 29.8683 0.918479 30 1.25 30C1.58152 30 1.89946 29.8683 2.13388 29.6339C2.3683 29.3995 2.5 29.0815 2.5 28.75V23.75H6.1625C7.07889 25.2752 8.3744 26.5373 9.92302 27.4134C11.4717 28.2896 13.2207 28.7501 15 28.7501C16.7793 28.7501 18.5283 28.2896 20.077 27.4134C21.6256 26.5373 22.9211 25.2752 23.8375 23.75H27.5V28.75C27.5 29.0815 27.6317 29.3995 27.8661 29.6339C28.1005 29.8683 28.4185 30 28.75 30C29.0815 30 29.3995 29.8683 29.6339 29.6339C29.8683 29.3995 30 29.0815 30 28.75V23.75C30 23.087 29.7366 22.4511 29.2678 21.9822C28.7989 21.5134 28.163 21.25 27.5 21.25H24.9338C25.2018 20.3267 25.3385 19.3702 25.34 18.4088C25.3364 17.9794 25.3063 17.5507 25.25 17.125L25.0312 16.25H28.75C29.0815 16.25 29.3995 16.1183 29.6339 15.8839C29.8683 15.6495 30 15.3315 30 15C30 14.6685 29.8683 14.3505 29.6339 14.1161C29.3995 13.8817 29.0815 13.75 28.75 13.75H24.4025L23.1413 8.75H27.5ZM15 26.25C12.9212 26.2477 10.9282 25.4208 9.4584 23.9507C7.98858 22.4807 7.16199 20.4876 7.16 18.4088C7.16172 18.1049 7.18134 17.8015 7.21875 17.5L9.75625 7.4625C10.1371 6.38138 10.8427 5.44437 11.7766 4.77976C12.7105 4.11515 13.827 3.75542 14.9732 3.74981C16.1194 3.7442 17.2394 4.09299 18.1797 4.74842C19.1201 5.40386 19.8349 6.33391 20.2262 7.41125L22.7812 17.5C22.8186 17.8007 22.8382 18.1033 22.84 18.4062C22.8387 20.4855 22.0124 22.4792 20.5425 23.9498C19.0726 25.4204 17.0792 26.2477 15 26.25Z" />
    </g>
    <defs>
        <clipPath id="clip0_759_9290">
            <rect width="30" height="30" fill="white" />
        </clipPath>
    </defs>
</svg>