<svg width="41" height="41" viewBox="0 0 41 41" fill="none" xmlns="http://www.w3.org/2000/svg">
<g clip-path="url(#clip0_520_2154)">
<path d="M32.4583 6.83333H31.5905L27.8595 1.99533C27.3787 1.37659 26.7633 0.875378 26.0601 0.529676C25.3568 0.183973 24.5841 0.00284103 23.8005 0L17.1995 0C16.4159 0.00284103 15.6432 0.183973 14.9399 0.529676C14.2367 0.875378 13.6213 1.37659 13.1405 1.99533L9.4095 6.83333H8.54167C6.27711 6.83605 4.10608 7.73684 2.50479 9.33813C0.903507 10.9394 0.00271259 13.1104 0 15.375L0 32.4583C0.00271259 34.7229 0.903507 36.8939 2.50479 38.4952C4.10608 40.0965 6.27711 40.9973 8.54167 41H32.4583C34.7229 40.9973 36.8939 40.0965 38.4952 38.4952C40.0965 36.8939 40.9973 34.7229 41 32.4583V15.375C40.9973 13.1104 40.0965 10.9394 38.4952 9.33813C36.8939 7.73684 34.7229 6.83605 32.4583 6.83333ZM15.8465 4.08292C16.0065 3.8763 16.2116 3.7089 16.446 3.59345C16.6805 3.478 16.9382 3.41754 17.1995 3.41667H23.8005C24.0618 3.41779 24.3194 3.47836 24.5538 3.59379C24.7882 3.70923 24.9933 3.87649 25.1535 4.08292L27.2752 6.83333H13.7248L15.8465 4.08292ZM37.5833 32.4583C37.5833 33.8176 37.0434 35.1211 36.0823 36.0823C35.1211 37.0434 33.8176 37.5833 32.4583 37.5833H8.54167C7.18243 37.5833 5.87887 37.0434 4.91774 36.0823C3.95662 35.1211 3.41667 33.8176 3.41667 32.4583V15.375C3.41667 14.0158 3.95662 12.7122 4.91774 11.7511C5.87887 10.79 7.18243 10.25 8.54167 10.25H32.4583C33.8176 10.25 35.1211 10.79 36.0823 11.7511C37.0434 12.7122 37.5833 14.0158 37.5833 15.375V32.4583Z" fill="#374957"/>
<path d="M20.5 13.6665C18.4727 13.6665 16.491 14.2677 14.8054 15.3939C13.1198 16.5202 11.806 18.1211 11.0302 19.994C10.2544 21.8669 10.0515 23.9279 10.447 25.9162C10.8425 27.9045 11.8187 29.7309 13.2522 31.1644C14.6856 32.5978 16.512 33.5741 18.5003 33.9696C20.4886 34.3651 22.5496 34.1621 24.4225 33.3863C26.2955 32.6105 27.8963 31.2967 29.0226 29.6111C30.1489 27.9255 30.75 25.9438 30.75 23.9165C30.7473 21.1989 29.6665 18.5933 27.7449 16.6717C25.8232 14.75 23.2176 13.6692 20.5 13.6665ZM20.5 30.7498C19.1485 30.7498 17.8273 30.3491 16.7036 29.5982C15.5799 28.8474 14.704 27.7801 14.1868 26.5315C13.6696 25.2829 13.5343 23.9089 13.798 22.5834C14.0616 21.2579 14.7125 20.0403 15.6681 19.0846C16.6238 18.1289 17.8414 17.4781 19.1669 17.2145C20.4924 16.9508 21.8664 17.0861 23.115 17.6033C24.3636 18.1205 25.4309 18.9964 26.1817 20.1201C26.9326 21.2438 27.3333 22.565 27.3333 23.9165C27.3333 25.7288 26.6134 27.4669 25.3319 28.7484C24.0504 30.0299 22.3123 30.7498 20.5 30.7498Z" fill="#374957"/>
</g>
<defs>
<clipPath id="clip0_520_2154">
<rect width="41" height="41" fill="white"/>
</clipPath>
</defs>
</svg>
