<svg width="24" height="24" viewBox="0 0 24 24" fill="none" xmlns="http://www.w3.org/2000/svg">
<g clip-path="url(#clip0_4_2343)">
<path d="M9.8781 18.122C11.0493 19.294 12.9488 19.2946 14.1208 18.1234C14.1212 18.1229 14.1216 18.1225 14.1221 18.122L17.3331 14.911C17.7035 14.5014 17.6717 13.869 17.262 13.4986C16.8806 13.1537 16.2998 13.1543 15.9191 13.5L12.9931 16.427L13.0001 1.00003C13.0001 0.447703 12.5524 0 12.0001 0C11.4478 0 11.0001 0.447703 11.0001 0.999984L10.9911 16.408L8.0811 13.5C7.69035 13.1095 7.05707 13.1098 6.6666 13.5005C6.27613 13.8913 6.27637 14.5245 6.66712 14.915L9.8781 18.122Z"/>
<path d="M23 16C22.4477 16 22 16.4477 22 17V21C22 21.5523 21.5523 22 21 22H3C2.44772 22 2.00002 21.5523 2.00002 21V17C2.00002 16.4477 1.55231 16 1.00003 16C0.447703 16 0 16.4477 0 17V21C0 22.6569 1.34316 24 3 24H21C22.6568 24 24 22.6569 24 21V17C24 16.4477 23.5523 16 23 16Z"/>
</g>
<defs>
<clipPath id="clip0_4_2343">
<rect width="24" height="24" fill="white"/>
</clipPath>
</defs>
</svg>
