<svg width="20" height="20" viewBox="0 0 20 20" fill="none" xmlns="http://www.w3.org/2000/svg">
<g clip-path="url(#clip0_1176_9830)">
<path d="M1.25838 5.06581C1.42253 5.06559 1.5851 5.09788 1.73671 5.16081C1.88832 5.22375 2.02597 5.31608 2.14171 5.43248L8.53588 11.8258C8.72934 12.0193 8.95903 12.1728 9.21183 12.2776C9.46463 12.3823 9.73558 12.4362 10.0092 12.4362C10.2828 12.4362 10.5538 12.3823 10.8066 12.2776C11.0594 12.1728 11.2891 12.0193 11.4825 11.8258L17.8667 5.44081C17.982 5.32143 18.12 5.2262 18.2725 5.16069C18.425 5.09518 18.589 5.06069 18.755 5.05925C18.9209 5.05781 19.0855 5.08944 19.2392 5.15229C19.3928 5.21514 19.5323 5.30795 19.6497 5.42532C19.7671 5.54269 19.8599 5.68225 19.9227 5.83587C19.9856 5.98949 20.0172 6.15409 20.0158 6.32006C20.0143 6.48604 19.9799 6.65006 19.9143 6.80257C19.8488 6.95507 19.7536 7.093 19.6342 7.20831L13.25 13.5933C12.39 14.4518 11.2244 14.9339 10.0092 14.9339C8.79401 14.9339 7.62846 14.4518 6.76838 13.5933L0.374213 7.19998C0.199283 7.02516 0.0801409 6.80238 0.0318625 6.55983C-0.016416 6.31728 0.00833916 6.06586 0.102995 5.83738C0.197652 5.6089 0.357955 5.41364 0.56362 5.2763C0.769286 5.13895 1.01107 5.0657 1.25838 5.06581V5.06581Z" fill="#959595"/>
</g>
<defs>
<clipPath id="clip0_1176_9830">
<rect width="20" height="20" fill="white"/>
</clipPath>
</defs>
</svg>
