<svg width="24" height="24" viewBox="0 0 24 24" fill="none" xmlns="http://www.w3.org/2000/svg">
<g clip-path="url(#clip0_520_2224)">
<path d="M2 14.0002C3.10457 14.0002 4 13.1048 4 12.0002C4 10.8957 3.10457 10.0002 2 10.0002C0.89543 10.0002 0 10.8957 0 12.0002C0 13.1048 0.89543 14.0002 2 14.0002Z" fill="#00A3FF"/>
<path d="M12 14.0002C13.1046 14.0002 14 13.1048 14 12.0002C14 10.8957 13.1046 10.0002 12 10.0002C10.8954 10.0002 10 10.8957 10 12.0002C10 13.1048 10.8954 14.0002 12 14.0002Z" fill="#00A3FF"/>
<path d="M22 14.0002C23.1046 14.0002 24 13.1048 24 12.0002C24 10.8957 23.1046 10.0002 22 10.0002C20.8954 10.0002 20 10.8957 20 12.0002C20 13.1048 20.8954 14.0002 22 14.0002Z" fill="#00A3FF"/>
</g>
<defs>
<clipPath id="clip0_520_2224">
<rect width="24" height="24" fill="white"/>
</clipPath>
</defs>
</svg>
