<svg width="105" height="97" viewBox="0 0 105 97" fill="none" xmlns="http://www.w3.org/2000/svg">
<g clip-path="url(#clip0_65_3238)">
<path d="M81.018 9.06273L53.8697 0.706726C52.9808 0.433441 52.0199 0.433441 51.131 0.706726L23.9827 9.06273C19.6663 10.3863 15.9115 12.9318 13.2518 16.3376C10.5921 19.7434 9.16282 23.8363 9.167 28.0347V48.5027C9.167 78.7547 49.0337 95.4627 50.741 96.1587C51.2949 96.3859 51.8942 96.5032 52.5003 96.5032C53.1064 96.5032 53.7058 96.3859 54.2597 96.1587C55.967 95.4627 95.8337 78.7547 95.8337 48.5027V28.0347C95.8378 23.8363 94.4085 19.7434 91.7489 16.3376C89.0892 12.9318 85.3344 10.3863 81.018 9.06273V9.06273ZM87.167 48.5027C87.167 70.3227 59.7847 84.6347 52.5003 88.0587C45.2073 84.6467 17.8337 70.3787 17.8337 48.5027V28.0347C17.8339 25.5158 18.6929 23.0609 20.2888 21.0177C21.8847 18.9745 24.1367 17.4467 26.7257 16.6507L52.5003 8.71873L78.275 16.6507C80.864 17.4467 83.116 18.9745 84.7119 21.0177C86.3078 23.0609 87.1667 25.5158 87.167 28.0347V48.5027Z" fill="#374957"/>
<path d="M66.7999 33.7013L48.6519 50.5014L38.9279 41.1414C38.5377 40.7475 38.066 40.4297 37.5406 40.2067C37.0153 39.9838 36.4469 39.8601 35.869 39.843C35.2911 39.8259 34.7153 39.9158 34.1756 40.1073C33.6358 40.2988 33.1431 40.588 32.7264 40.958C32.3096 41.328 31.9773 41.7713 31.749 42.2617C31.5207 42.7521 31.4011 43.2797 31.3971 43.8134C31.3931 44.3471 31.5049 44.8762 31.7258 45.3694C31.9468 45.8627 32.2724 46.3101 32.6836 46.6854L42.6762 56.2854C43.4215 57.0284 44.3222 57.6242 45.324 58.0367C46.3258 58.4492 47.4078 58.6699 48.5046 58.6854H48.6476C49.7225 58.6887 50.7874 58.4948 51.7805 58.1151C52.7736 57.7354 53.675 57.1773 54.4326 56.4734L72.9446 39.3854C73.3489 39.0129 73.6698 38.5706 73.8889 38.0837C74.1081 37.5968 74.2212 37.0748 74.2218 36.5476C74.2224 36.0203 74.1105 35.4981 73.8924 35.0108C73.6744 34.5235 73.3545 34.0806 72.9511 33.7073C72.5476 33.3341 72.0685 33.0379 71.541 32.8356C71.0135 32.6333 70.448 32.5289 69.8768 32.5284C69.3057 32.5278 68.7399 32.6311 68.212 32.8324C67.6841 33.0336 67.2042 33.3289 66.7999 33.7013V33.7013Z" fill="#374957"/>
</g>
<defs>
<clipPath id="clip0_65_3238">
<rect width="104" height="96" fill="white" transform="translate(0.5 0.5)"/>
</clipPath>
</defs>
</svg>
