<svg width="30" height="30" viewBox="0 0 30 30" fill="none" xmlns="http://www.w3.org/2000/svg">
    <g clip-path="url(#clip0_759_9275)">
        <path
            d="M20 0H19.8375C19.2781 0.00531477 18.7362 0.196267 18.2971 0.542874C17.858 0.889482 17.5464 1.37212 17.4112 1.915C17.2665 2.44355 16.9521 2.9099 16.5165 3.24232C16.0808 3.57473 15.548 3.75479 15 3.75479C14.452 3.75479 13.9192 3.57473 13.4835 3.24232C13.0478 2.9099 12.7335 2.44355 12.5887 1.915C12.4536 1.37212 12.142 0.889482 11.7029 0.542874C11.2637 0.196267 10.7219 0.00531477 10.1625 0L9.99998 0C8.34299 0.00198482 6.75443 0.661102 5.58276 1.83277C4.41109 3.00445 3.75197 4.59301 3.74998 6.25V26.25C3.74998 27.2446 4.14507 28.1984 4.84833 28.9017C5.5516 29.6049 6.50542 30 7.49998 30H10.1625C10.7219 29.9947 11.2637 29.8037 11.7029 29.4571C12.142 29.1105 12.4536 28.6279 12.5887 28.085C12.7335 27.5565 13.0478 27.0901 13.4835 26.7577C13.9192 26.4253 14.452 26.2452 15 26.2452C15.548 26.2452 16.0808 26.4253 16.5165 26.7577C16.9521 27.0901 17.2665 27.5565 17.4112 28.085C17.5464 28.6279 17.858 29.1105 18.2971 29.4571C18.7362 29.8037 19.2781 29.9947 19.8375 30H22.5C23.4945 30 24.4484 29.6049 25.1516 28.9017C25.8549 28.1984 26.25 27.2446 26.25 26.25V6.25C26.248 4.59301 25.5889 3.00445 24.4172 1.83277C23.2455 0.661102 21.657 0.00198482 20 0V0ZM22.5 27.5L19.8212 27.4212C19.5276 26.3605 18.8923 25.4263 18.0136 24.7635C17.135 24.1006 16.0622 23.7462 14.9616 23.7552C13.8611 23.7642 12.7942 24.136 11.9265 24.8131C11.0588 25.4902 10.4387 26.4346 10.1625 27.5H7.49998C7.16846 27.5 6.85052 27.3683 6.6161 27.1339C6.38168 26.8995 6.24998 26.5815 6.24998 26.25V21.25H8.74998C9.08151 21.25 9.39945 21.1183 9.63387 20.8839C9.86829 20.6495 9.99998 20.3315 9.99998 20C9.99998 19.6685 9.86829 19.3505 9.63387 19.1161C9.39945 18.8817 9.08151 18.75 8.74998 18.75H6.24998V6.25C6.24998 5.25544 6.64507 4.30161 7.34833 3.59835C8.0516 2.89509 9.00542 2.5 9.99998 2.5L10.1787 2.57875C10.4715 3.63303 11.1012 4.56256 11.9718 5.22544C12.8423 5.88832 13.9058 6.24815 15 6.25C16.1089 6.24057 17.1844 5.86913 18.0629 5.1922C18.9413 4.51528 19.5745 3.56993 19.8662 2.5H20C20.9945 2.5 21.9484 2.89509 22.6516 3.59835C23.3549 4.30161 23.75 5.25544 23.75 6.25V18.75H21.25C20.9185 18.75 20.6005 18.8817 20.3661 19.1161C20.1317 19.3505 20 19.6685 20 20C20 20.3315 20.1317 20.6495 20.3661 20.8839C20.6005 21.1183 20.9185 21.25 21.25 21.25H23.75V26.25C23.75 26.5815 23.6183 26.8995 23.3839 27.1339C23.1494 27.3683 22.8315 27.5 22.5 27.5Z" />
        <path
            d="M16.2501 18.75H13.7501C13.4186 18.75 13.1006 18.8817 12.8662 19.1161C12.6318 19.3505 12.5001 19.6685 12.5001 20C12.5001 20.3315 12.6318 20.6495 12.8662 20.8839C13.1006 21.1183 13.4186 21.25 13.7501 21.25H16.2501C16.5816 21.25 16.8995 21.1183 17.134 20.8839C17.3684 20.6495 17.5001 20.3315 17.5001 20C17.5001 19.6685 17.3684 19.3505 17.134 19.1161C16.8995 18.8817 16.5816 18.75 16.2501 18.75Z"
            fill="#374957" />
    </g>
    <defs>
        <clipPath id="clip0_759_9275">
            <rect width="30" height="30" fill="white" />
        </clipPath>
    </defs>
</svg>